[Header]
FileType HTR
DataType HTRS
FileVersion 1
NumSegments 64
NumFrames 3
DataFrameRate 24
EulerRotationOrder ZYX
CalibrationUnits mm
RotationUnits Degrees
GlobalAxisofGravity Y
BoneLengthAxis Y
ScaleFactor 1.0
[SegmentNames&Hierarchy]
Hips	GLOBAL
Spine	Hips
Spine1	Spine
Spine2	Spine1
Neck	Spine2
Head	Neck
LeftEye	Head
RightEye	Head
LeftShoulder	Spine2
LeftArm	LeftShoulder
LeftForeArm	LeftArm
LeftHand	LeftForeArm
LeftHandThumb1	LeftHand
LeftHandThumb2	LeftHandThumb1
LeftHandThumb3	LeftHandThumb2
LeftHandThumb4	LeftHandThumb3
LeftHandIndex1	LeftHand
LeftHandIndex2	LeftHandIndex1
LeftHandIndex3	LeftHandIndex2
LeftHandIndex4	LeftHandIndex3
LeftHandMiddle1	LeftHand
LeftHandMiddle2	LeftHandMiddle1
LeftHandMiddle3	LeftHandMiddle2
LeftHandMiddle4	LeftHandMiddle3
LeftHandRing1	LeftHand
LeftHandRing2	LeftHandRing1
LeftHandRing3	LeftHandRing2
LeftHandRing4	LeftHandRing3
LeftHandPinky1	LeftHand
LeftHandPinky2	LeftHandPinky1
LeftHandPinky3	LeftHandPinky2
LeftHandPinky4	LeftHandPinky3
RightShoulder	Spine2
RightArm	RightShoulder
RightForeArm	RightArm
RightHand	RightForeArm
RightHandPinky1	RightHand
RightHandPinky2	RightHandPinky1
RightHandPinky3	RightHandPinky2
RightHandPinky4	RightHandPinky3
RightHandRing1	RightHand
RightHandRing2	RightHandRing1
RightHandRing3	RightHandRing2
RightHandRing4	RightHandRing3
RightHandMiddle1	RightHand
RightHandMiddle2	RightHandMiddle1
RightHandMiddle3	RightHandMiddle2
RightHandMiddle4	RightHandMiddle3
RightHandIndex1	RightHand
RightHandIndex2	RightHandIndex1
RightHandIndex3	RightHandIndex2
RightHandIndex4	RightHandIndex3
RightHandThumb1	RightHand
RightHandThumb2	RightHandThumb1
RightHandThumb3	RightHandThumb2
RightHandThumb4	RightHandThumb3
LeftUpLeg	Hips
LeftLeg	LeftUpLeg
LeftFoot	LeftLeg
LeftToeBase	LeftFoot
RightUpLeg	Hips
RightLeg	RightUpLeg
RightFoot	RightLeg
RightToeBase	RightFoot
[BasePosition]
Hips	0	0	0	0	0	0	1
Spine	0	0	0	0	0	0	1
Spine1	0	0	0	0	0	0	1
Spine2	0	0	0	0	0	0	1
Neck	0	0	0	0	0	0	1
Head	0	0	0	0	0	0	1
LeftEye	0	0	0	0	0	0	1
RightEye	0	0	0	0	0	0	1
LeftShoulder	0	0	0	0	0	0	1
LeftArm	0	0	0	0	0	0	1
LeftForeArm	0	0	0	0	0	0	1
LeftHand	0	0	0	0	0	0	1
LeftHandThumb1	0	0	0	0	0	0	1
LeftHandThumb2	0	0	0	0	0	0	1
LeftHandThumb3	0	0	0	0	0	0	1
LeftHandThumb4	0	0	0	0	0	0	1
LeftHandIndex1	0	0	0	0	0	0	1
LeftHandIndex2	0	0	0	0	0	0	1
LeftHandIndex3	0	0	0	0	0	0	1
LeftHandIndex4	0	0	0	0	0	0	1
LeftHandMiddle1	0	0	0	0	0	0	1
LeftHandMiddle2	0	0	0	0	0	0	1
LeftHandMiddle3	0	0	0	0	0	0	1
LeftHandMiddle4	0	0	0	0	0	0	1
LeftHandRing1	0	0	0	0	0	0	1
LeftHandRing2	0	0	0	0	0	0	1
LeftHandRing3	0	0	0	0	0	0	1
LeftHandRing4	0	0	0	0	0	0	1
LeftHandPinky1	0	0	0	0	0	0	1
LeftHandPinky2	0	0	0	0	0	0	1
LeftHandPinky3	0	0	0	0	0	0	1
LeftHandPinky4	0	0	0	0	0	0	1
RightShoulder	0	0	0	0	0	0	1
RightArm	0	0	0	0	0	0	1
RightForeArm	0	0	0	0	0	0	1
RightHand	0	0	0	0	0	0	1
RightHandPinky1	0	0	0	0	0	0	1
RightHandPinky2	0	0	0	0	0	0	1
RightHandPinky3	0	0	0	0	0	0	1
RightHandPinky4	0	0	0	0	0	0	1
RightHandRing1	0	0	0	0	0	0	1
RightHandRing2	0	0	0	0	0	0	1
RightHandRing3	0	0	0	0	0	0	1
RightHandRing4	0	0	0	0	0	0	1
RightHandMiddle1	0	0	0	0	0	0	1
RightHandMiddle2	0	0	0	0	0	0	1
RightHandMiddle3	0	0	0	0	0	0	1
RightHandMiddle4	0	0	0	0	0	0	1
RightHandIndex1	0	0	0	0	0	0	1
RightHandIndex2	0	0	0	0	0	0	1
RightHandIndex3	0	0	0	0	0	0	1
RightHandIndex4	0	0	0	0	0	0	1
RightHandThumb1	0	0	0	0	0	0	1
RightHandThumb2	0	0	0	0	0	0	1
RightHandThumb3	0	0	0	0	0	0	1
RightHandThumb4	0	0	0	0	0	0	1
LeftUpLeg	0	0	0	0	0	0	1
LeftLeg	0	0	0	0	0	0	1
LeftFoot	0	0	0	0	0	0	1
LeftToeBase	0	0	0	0	0	0	1
RightUpLeg	0	0	0	0	0	0	1
RightLeg	0	0	0	0	0	0	1
RightFoot	0	0	0	0	0	0	1
RightToeBase	0	0	0	0	0	0	1
[Hips]
1	0.03997629136	1031.313721	17.13725853	-2.679558565e-05	0.002573770704	-0.04135233164	1.0
2	0.1291233301	1026.969238	24.7198143	1.047127247	0.008088604547	-0.1197107583	1.0
3	0.2294511944	1026.717407	30.73698235	1.983290315	0.01479616947	-0.2103261352	1.0
[Spine]
1	0	101.8159943	1.315000057	8.333187103	-0.00257195835	0.04132996872	1.0
2	0	101.8159943	1.315000057	8.727308273	-0.005897585303	0.1198161468	1.0
3	0	101.8159943	1.315000057	9.370803833	-0.007506082766	0.2106898278	1.0
[Spine1]
1	0	100.8349991	-10.00800037	-8.333457947	-3.106332952e-05	5.981995491e-05	1.0
2	0	100.8349991	-10.00800037	-8.00938797	-3.140794433e-05	5.963971489e-05	1.0
3	0	100.8349991	-10.00800037	-7.480246544	-3.196840771e-05	5.934114597e-05	1.0
[Spine2]
1	0	91	-13.73399925	-0.0001173842393	2.28096102e-08	3.157554147e-07	1.0
2	0	91	-13.73399925	0.5547543764	1.945298855e-08	3.159694586e-07	1.0
3	0	91	-13.73399925	1.460468531	1.396262395e-08	3.16268256e-07	1.0
[Neck]
1	0	166.7169952	-25.16200066	0	-6.066426694e-21	-4.069956008e-21	1.0
2	0	166.7169952	-25.16200066	-0.1440773308	3.100894901e-07	3.551548957e-07	1.0
3	0	166.7169952	-25.16200066	-0.1646068841	3.102259143e-07	3.550262022e-07	1.0
[Head]
1	0	96.17900085	16.84999847	1.60762138e-05	3.764569556e-05	-3.040673801e-05	1.0
2	0	96.17900085	16.84999847	-1.201691628	0.006714409683	-0.0001794074487	1.0
3	0	96.17900085	16.84999847	-2.733298063	0.01759131253	-0.0008857154753	1.0
[LeftEye]
1	30.6760006	64.09500122	92.83599854	0	0	0	1.0
2	30.6760006	64.09500122	92.83599854	0	0	0	1.0
3	30.6760006	64.09500122	92.83599854	0	0	0	1.0
[RightEye]
1	-30.6760006	64.09500122	92.83499908	0	0	0	1.0
2	-30.6760006	64.09500122	92.83499908	0	0	0	1.0
3	-30.6760006	64.09500122	92.83499908	0	0	0	1.0
[LeftShoulder]
1	45.70400238	109.4599991	-26.28000069	-1.922616927e-11	2.941794161e-12	1.04195733e-05	1.0
2	45.70400238	109.4599991	-26.28000069	-0.5458269119	1.718617678	-3.413854599	1.0
3	45.70400238	109.4599991	-26.28000069	-1.461447597	3.34370327	-7.551982403	1.0
[LeftArm]
1	105.923996	-5.24600029	-22.32099915	1.635700573e-05	3.692469181e-05	0.0001638783724	1.0
2	105.923996	-5.24600029	-22.32099915	1.394024372	-3.04649353	-16.39581871	1.0
3	105.923996	-5.24600029	-22.32099915	5.285444736	-6.040358067	-34.19562149	1.0
[LeftForeArm]
1	278.414978	-0.0009999999311	0	4.037790935e-11	-0.4166640639	-0.0002057927195	1.0
2	278.414978	-0.0009999999311	0	1.046638545e-06	-0.1202294528	-0.0002145599865	1.0
3	278.414978	-0.0009999999311	0	5.38968834e-07	-1.283030997e-06	-0.0002237990848	1.0
[LeftHand]
1	283.2879944	0	0	-5.894141197	-2.348031521	3.362512112	1.0
2	283.2879944	0	0	-4.066135406	-2.605121374	2.937873363	1.0
3	283.2879944	0	0	-1.078553557	-2.992999554	2.227168798	1.0
[LeftHandThumb1]
1	24.6609993	-15.75	26.8239994	-6.515938282	-5.59445715	5.268244267	1.0
2	24.6609993	-15.75	26.8239994	-6.58711195	-4.751248837	4.709545135	1.0
3	24.6609993	-15.75	26.8239994	-6.722340107	-3.377286434	3.797529697	1.0
[LeftHandThumb2]
1	32.29800034	-18.64699936	18.64699936	6.42183733	12.43068695	2.707374096	1.0
2	32.29800034	-18.64699936	18.64699936	6.645411491	12.74956131	2.819539309	1.0
3	32.29800034	-18.64699936	18.64699936	7.012194157	13.2689352	3.005470991	1.0
[LeftHandThumb3]
1	26.52600098	-15.31499958	15.31499958	-7.237570763	1.261265397	13.09554291	1.0
2	26.52600098	-15.31499958	15.31499958	-7.001797676	1.502846241	13.16483116	1.0
3	26.52600098	-15.31499958	15.31499958	-6.616397858	1.89640069	13.27989864	1.0
[LeftHandThumb4]
1	19.54599953	-11.28499985	11.28499985	0	0	0	1.0
2	19.54599953	-11.28499985	11.28499985	0	0	0	1.0
3	19.54599953	-11.28499985	11.28499985	0	0	0	1.0
[LeftHandIndex1]
1	91.09299469	-5.170999527	22.60099792	-0.07261706144	2.677021027	-3.107088804	1.0
2	91.09299469	-5.170999527	22.60099792	-0.09251476824	3.295457602	-3.543629408	1.0
3	91.09299469	-5.170999527	22.60099792	-0.1248012483	4.303776741	-4.256500721	1.0
[LeftHandIndex2]
1	36.76399994	0	0	-4.246707874e-07	-3.385110525e-10	3.317828234e-09	1.0
2	36.76399994	0	0	-0.0005410180893	0.07953426987	-0.7796171308	1.0
3	36.76399994	0	0	-0.003748669522	0.2093111426	-2.052087784	1.0
[LeftHandIndex3]
1	28.83100128	0	0	4.168534531e-07	1.103546126e-07	-1.081612027e-06	1.0
2	28.83100128	0	0	-0.0002126510371	0.04988088086	-0.4889350533	1.0
3	28.83100128	0	0	-0.001472577453	0.1312079281	-1.286192894	1.0
[LeftHandIndex4]
1	23.92700005	0	0	0	0	0	1.0
2	23.92700005	0	0	0	0	0	1.0
3	23.92700005	0	0	0	0	0	1.0
[LeftHandMiddle1]
1	95.33399963	0	0	-0.07261706144	2.677019835	-3.107089043	1.0
2	95.33399963	0	0	-0.1128470004	3.011743307	-3.962058306	1.0
3	95.33399963	0	0	-0.1812788397	3.557729959	-5.358279228	1.0
[LeftHandMiddle2]
1	36.98199844	0	0	-4.246949175e-07	-4.969616748e-17	-6.212020935e-18	1.0
2	36.98199844	0	0	-0.000214974847	0.05004700646	-0.490565896	1.0
3	36.98199844	0	0	-0.001483863685	0.1316328496	-1.290354252	1.0
[LeftHandMiddle3]
1	29.50900078	0	0	4.011704959e-07	3.317408641e-07	-3.251471753e-06	1.0
2	29.50900078	0	0	-8.11945356e-05	0.03089021146	-0.3027844429	1.0
3	29.50900078	0	0	-0.0005639638985	0.08128588647	-0.7968013287	1.0
[LeftHandMiddle4]
1	28.3390007	0	0	0	0	0	1.0
2	28.3390007	0	0	0	0	0	1.0
3	28.3390007	0	0	0	0	0	1.0
[LeftHandRing1]
1	91.04499817	-0.4390000105	-18.65100098	-0.07261706144	2.677019835	-3.107089043	1.0
2	91.04499817	-0.4390000105	-18.65100098	-0.1154970303	2.415446758	-4.003845692	1.0
3	91.04499817	-0.4390000105	-18.65100098	-0.1877340376	1.98388648	-5.467859745	1.0
[LeftHandRing2]
1	31.54000092	0	0	-4.265527309e-07	-2.752626216e-08	-2.55912056e-07	1.0
2	31.54000092	0	0	-0.0002335954923	0.05222665146	-0.5119273067	1.0
3	31.54000092	0	0	-0.001608621911	0.1371554583	-1.344493747	1.0
[LeftHandRing3]
1	29.37700081	0	0	4.247190191e-07	-0	0	1.0
2	29.37700081	0	0	-0.0003722542024	0.06592375785	-0.646196425	1.0
3	29.37700081	0	0	-0.002575654769	0.1734718382	-1.700600505	1.0
[LeftHandRing4]
1	26.47500038	0	0	0	0	0	1.0
2	26.47500038	0	0	0	0	0	1.0
3	26.47500038	0	0	0	0	0	1.0
[LeftHandPinky1]
1	80.77799988	-4.887000084	-38.06099701	-0.07261706144	2.677019835	-3.107089043	1.0
2	80.77799988	-4.887000084	-38.06099701	-0.1056857035	1.51047802	-3.813640594	1.0
3	80.77799988	-4.887000084	-38.06099701	-0.1557615548	-0.3995784521	-4.979533672	1.0
[LeftHandPinky2]
1	36	0	0	-2.026719459e-09	5.514610635e-08	-2.776484678e-07	1.0
2	36	0	0	-0.0003397784894	0.0630890131	-0.6184120178	1.0
3	36	0	0	-0.002277588239	0.1631243378	-1.599110484	1.0
[LeftHandPinky3]
1	21.14200211	0	0	4.325846419e-07	-1.110316248e-07	1.0882477e-06	1.0
2	21.14200211	0	0	-0.0002398439829	0.0529207699	-0.5187351108	1.0
3	21.14200211	0	0	-0.001665006974	0.1395155042	-1.367675543	1.0
[LeftHandPinky4]
1	19.75699997	0	0	0	0	0	1.0
2	19.75699997	0	0	0	0	0	1.0
3	19.75699997	0	0	0	0	0	1.0
[RightShoulder]
1	-45.70000076	109.4620056	-26.28000069	-6.541367274e-12	4.043331425e-13	-9.980806681e-06	1.0
2	-45.70000076	109.4620056	-26.28000069	-0.5458131433	-1.718623877	3.413855314	1.0
3	-45.70000076	109.4620056	-26.28000069	-1.461422443	-3.343703032	7.551985264	1.0
[RightArm]
1	-105.9280014	-5.248000145	-22.32099915	1.634062755e-05	3.668612771e-05	-2.139529897e-05	1.0
2	-105.9280014	-5.248000145	-22.32099915	1.394102097	3.046553373	16.39596176	1.0
3	-105.9280014	-5.248000145	-22.32099915	5.285599709	6.040373802	34.19577408	1.0
[RightForeArm]
1	-278.414978	0	0	1.655954367e-11	0.4164620638	-1.590929265e-13	1.0
2	-278.414978	0	0	1.995859975e-07	0.1200278848	5.926677659e-06	1.0
3	-278.414978	0	0	-6.780697959e-07	-0.0002029345196	-1.953847686e-06	1.0
[RightHand]
1	-283.2879944	0	0.0009999999311	-4.682260513	2.274720907	-2.605363846	1.0
2	-283.2879944	0	0.0009999999311	-2.851133585	2.507694483	-2.183325768	1.0
3	-283.2879944	0	0.0009999999311	0.140995577	2.85639143	-1.478499532	1.0
[RightHandPinky1]
1	-80.76699829	-4.885000229	-38.06000137	-0.05219100788	-2.478958607	2.413315773	1.0
2	-80.76699829	-4.885000229	-38.06000137	-0.08191504329	-1.298216105	3.095758438	1.0
3	-80.76699829	-4.885000229	-38.06000137	-0.127173394	0.6352148652	4.222424984	1.0
[RightHandPinky2]
1	-36	0	0.0009999999311	1.498062687e-07	0.001591564389	-1.712721076e-09	1.0
2	-36	0	0.0009999999311	-0.0002538129629	-0.04859046638	0.6195808649	1.0
3	-36	0	0.0009999999311	-0.001771735493	-0.1281599849	1.602169871	1.0
[RightHandPinky3]
1	-21.14200211	0	0	-7.880537112e-09	-6.132129471e-08	1.087493956e-06	1.0
2	-21.14200211	0	0	-0.000191285304	-0.04209399968	0.5197341442	1.0
3	-21.14200211	0	0	-0.001327227801	-0.1109738499	1.370277166	1.0
[RightHandPinky4]
1	-19.75699997	0	0	0	0	0	1.0
2	-19.75699997	0	0	0	0	0	1.0
3	-19.75699997	0	0	0	0	0	1.0
[RightHandRing1]
1	-91.03599548	-0.4390000105	-18.65100098	-0.05219082162	-2.477364302	2.413315058	1.0
2	-91.03599548	-0.4390000105	-18.65100098	-0.09157283604	-2.197514534	3.304390192	1.0
3	-91.03599548	-0.4390000105	-18.65100098	-0.1575466841	-1.736234069	4.759065628	1.0
[RightHandRing2]
1	-31.54000092	0	0	-1.426242568e-09	-6.974482858e-08	2.00128099e-07	1.0
2	-31.54000092	0	0	-0.0001854110596	-0.04154162854	0.5129045844	1.0
3	-31.54000092	0	0	-0.001281655859	-0.1090943068	1.347080469	1.0
[RightHandRing3]
1	-29.37700081	0	0	0	0	-6.212020935e-18	1.0
2	-29.37700081	0	0	-0.0002962872095	-0.05243731663	0.6474266052	1.0
3	-29.37700081	0	0	-0.002053202596	-0.1379818916	1.703846574	1.0
[RightHandRing4]
1	-26.47500038	0	0	0	0	0	1.0
2	-26.47500038	0	0	0	0	0	1.0
3	-26.47500038	0	0	0	0	0	1.0
[RightHandMiddle1]
1	-95.32500458	0	0	-0.05219086632	-2.477365017	2.413315773	1.0
2	-95.32500458	0	0	-0.08961201459	-2.79453969	3.274817944	1.0
3	-95.32500458	0	0	-0.1529757679	-3.311975718	4.681583405	1.0
[RightHandMiddle2]
1	-36.98199844	0	0	-9.693593483e-09	-1.081085301e-07	1.334652325e-06	1.0
2	-36.98199844	0	0	-0.0001716665574	-0.03980848566	0.4915033877	1.0
3	-36.98199844	0	0	-0.001181462663	-0.1047026366	1.292813182	1.0
[RightHandMiddle3]
1	-29.50900078	0	0	-7.832228199e-09	-0.002021906665	1.085933036e-06	1.0
2	-29.50900078	0	0	-6.412735092e-05	-0.02659252658	0.3033624887	1.0
3	-29.50900078	0	0	-0.0004497180344	-0.06667751819	0.7983196974	1.0
[RightHandMiddle4]
1	-28.3390007	0	0.0009999999311	0	0	0	1.0
2	-28.3390007	0	0.0009999999311	0	0	0	1.0
3	-28.3390007	0	0.0009999999311	0	0	0	1.0
[RightHandIndex1]
1	-91.08300018	-5.167999744	22.60099792	-0.0521908924	-2.477361441	2.41331625	1.0
2	-91.08300018	-5.167999744	22.60099792	-0.07113929093	-3.086740255	2.862375736	1.0
3	-91.08300018	-5.167999744	22.60099792	-0.1020154059	-4.080291271	3.595589161	1.0
[RightHandIndex2]
1	-36.76399994	0	0	-9.669443024e-11	-1.077046341e-09	1.329666066e-08	1.0
2	-36.76399994	0	0	-0.0004315900151	-0.06326256692	0.7811052799	1.0
3	-36.76399994	0	0	-0.00298873079	-0.1664893031	2.055994749	1.0
[RightHandIndex3]
1	-28.83100128	0	0	2.417301082e-11	1.346308481e-10	-1.662082694e-09	1.0
2	-28.83100128	0	0	-0.0001696903491	-0.03967591748	0.4898645282	1.0
3	-28.83100128	0	0	-0.001173506374	-0.1043642014	1.288655877	1.0
[RightHandIndex4]
1	-23.92700005	0	0	0	0	0	1.0
2	-23.92700005	0	0	0	0	0	1.0
3	-23.92700005	0	0	0	0	0	1.0
[RightHandThumb1]
1	-24.64799881	-15.72700024	26.82600021	-7.535459518	7.620221138	-5.027756214	1.0
2	-24.64799881	-15.72700024	26.82600021	-7.621103764	6.790277004	-4.455961227	1.0
3	-24.64799881	-15.72700024	26.82600021	-7.779995918	5.438316345	-3.522870302	1.0
[RightHandThumb2]
1	-32.29800034	-18.64699936	18.64699936	7.098087788	-14.10493183	-3.792291403	1.0
2	-32.29800034	-18.64699936	18.64699936	7.323684216	-14.42476559	-3.90463686	1.0
3	-32.29800034	-18.64699936	18.64699936	7.693860531	-14.94570065	-4.090937138	1.0
[RightHandThumb3]
1	-26.52600098	-15.31399918	15.31399918	-3.950469494	-6.714652061	-14.221838	1.0
2	-26.52600098	-15.31399918	15.31399918	-3.708966732	-6.953239441	-14.31014442	1.0
3	-26.52600098	-15.31399918	15.31399918	-3.313851833	-7.341705322	-14.45634842	1.0
[RightHandThumb4]
1	-19.54599953	-11.28499985	11.28499985	0	0	0	1.0
2	-19.54599953	-11.28499985	11.28499985	0	0	0	1.0
3	-19.54599953	-11.28499985	11.28499985	0	0	0	1.0
[LeftUpLeg]
1	82.07800293	-67.51699829	-15.99599934	-4.939242363	-0.228292793	-0.1924039274	1.0
2	82.07800293	-67.51699829	-15.99599934	-7.705049038	-0.2482586056	-0.1208714321	1.0
3	82.07800293	-67.51699829	-15.99599934	-9.66280365	-0.2903372347	-0.05977091938	1.0
[LeftLeg]
1	0	-443.7049866	2.845999956	13.65036106	0.2324068099	0.05653836578	1.0
2	0	-443.7049866	2.845999956	17.77897072	0.8165943623	0.396130234	1.0
3	0	-443.7049866	2.845999956	20.1049633	1.903181791	1.034460783	1.0
[LeftFoot]
1	0	-444.2789917	-29.8219986	-8.710886955	0.01725459658	0.1970974654	1.0
2	0	-444.2789917	-29.8219986	-10.19218445	-1.007888794	0.1433543861	1.0
3	0	-444.2789917	-29.8219986	-9.479995728	-2.577849865	0.06388487667	1.0
[LeftToeBase]
1	0	-87.28699493	107.1060028	-0.5424096584	4.044642843e-09	1.776527903e-08	1.0
2	0	-87.28699493	107.1060028	-2.200007915	-1.599428856e-07	9.679193447e-09	1.0
3	0	-87.28699493	107.1060028	-4.656628132	-4.033305459e-07	-6.562724764e-08	1.0
[RightUpLeg]
1	-82.07800293	-67.51699829	-15.99599934	-4.887774467	0.2271597087	0.2310125977	1.0
2	-82.07800293	-67.51699829	-15.99599934	-6.864971161	0.101154387	0.3424146473	1.0
3	-82.07800293	-67.51699829	-15.99599934	-7.280491829	0.01323213987	0.4906793237	1.0
[RightLeg]
1	0	-443.7049866	2.861999989	13.54860592	-0.2369251698	-0.05688382685	1.0
2	0	-443.7049866	2.861999989	16.26486397	-1.035846233	-0.4266274571	1.0
3	0	-443.7049866	2.861999989	15.88637733	-2.386769056	-0.9978784919	1.0
[RightFoot]
1	0	-444.2770081	-29.83799934	-8.660628319	-0.01202032156	-0.1531062722	1.0
2	0	-444.2770081	-29.83799934	-10.44551563	0.9724158049	-0.08276035637	1.0
3	0	-444.2770081	-29.83799934	-10.57366085	2.506059885	0.03302935138	1.0
[RightToeBase]
1	0	-87.28699493	107.1060028	-1.515573604e-05	-2.909377805e-08	-1.999551955e-07	1.0
2	0	-87.28699493	107.1060028	-1.515573604e-05	-2.909377805e-08	-1.999551955e-07	1.0
3	0	-87.28699493	107.1060028	-1.515573604e-05	-2.909377805e-08	-1.999551955e-07	1.0
[EndOfFile]
